<svg xmlns="http://www.w3.org/2000/svg" viewBox="0 0 320 280" fill="none">
  <title>Waveshare Touch AMOLED 1.8 development kit, illustrated</title>
  <defs><linearGradient id="case" x1="78" y1="35" x2="250" y2="255" gradientUnits="userSpaceOnUse"><stop stop-color="#55594e"/><stop offset=".5" stop-color="#292d27"/><stop offset="1" stop-color="#161a15"/></linearGradient><linearGradient id="glass" x1="109" y1="56" x2="214" y2="228" gradientUnits="userSpaceOnUse"><stop stop-color="#252b23"/><stop offset=".45" stop-color="#0c100d"/></linearGradient></defs>
  <ellipse cx="168" cy="255" rx="88" ry="10" fill="#000" opacity=".18"/>
  <g transform="rotate(-8 160 140)">
    <rect x="77" y="42" width="170" height="207" rx="31" fill="#121610" stroke="#41483c"/>
    <rect x="69" y="83" width="8" height="23" rx="3" fill="#686e60"/><rect x="69" y="179" width="8" height="23" rx="3" fill="#686e60"/>
    <rect x="73" y="32" width="170" height="207" rx="30" fill="url(#case)" stroke="#707969"/>
    <rect x="82" y="41" width="152" height="189" rx="24" fill="#0b0e0a" stroke="#737b6b" stroke-opacity=".5"/>
    <rect x="90" y="49" width="136" height="172" rx="18" fill="url(#glass)"/>
    <path d="M104 61h48" stroke="#fff" stroke-opacity=".13" stroke-width="2" stroke-linecap="round"/>
    <rect x="103" y="102" width="7" height="7" rx="1" fill="#ff824d"/>
    <path d="M118 106h72M103 124h88M103 143h54" stroke="#d0d7c6" stroke-width="5" stroke-linecap="round"/>
    <path d="M103 178h38" stroke="#ff824d" stroke-width="3" stroke-linecap="round"/>
    <circle cx="209" cy="206" r="3" fill="#ff824d"/>
    <rect x="72" y="120" width="5" height="26" rx="2" fill="#090c08" stroke="#89917e"/>
  </g>
</svg>
